<svg width="800" height="734" viewBox="0 0 800 734" fill="none" xmlns="http://www.w3.org/2000/svg">
<rect x="183" y="92" width="143" height="116" fill="#0A2F51"/>
<path d="M68.5 197.5H213.5V281.5H68.5V197.5Z" fill="#0A2F51"/>
<path d="M109 165.5H254V249.5H109V165.5Z" fill="#0A2F51"/>
<path d="M38.5 176.5H183.5V260.5H38.5V176.5Z" fill="#0A2F51"/>
<path d="M13.5 173H158.5V257L28 241.5L13.5 173Z" fill="#0A2F51"/>
<rect x="211" y="423" width="396" height="264" fill="#0A2F51"/>
<path d="M403.482 356.108C441.276 331.77 508.266 293.185 510.899 194.955C512.948 117.455 472.791 5.74984 323.035 0.506241C202.715 -3.72838 152.492 74.9714 137.858 145.63L134.312 145.148C126.928 145.148 121.172 150.04 113.903 156.19C105.938 163.008 96.0052 171.397 84.123 172.654C70.4675 174.034 53.1239 168.045 39.4149 163.295C23.3898 157.826 14.0989 155.471 7.8272 160.394C2.08293 164.839 -0.496823 172.861 0.0764569 184.189C1.34149 208.366 19.0749 256.487 61.2874 282.709C90.6011 300.92 123.385 303.66 140.327 303.66C140.35 303.66 140.35 303.66 140.35 303.66C149.408 303.66 159.249 302.747 168.586 300.886C179.062 317.006 188.567 329.458 191.659 338.156C199.509 360.518 85.2276 434.035 85.2276 548.397C85.2276 662.732 169.358 733.662 302.03 733.662H512.248C629.17 733.662 782.89 619.358 800 380.216C690.92 472.216 638.358 342.116 403.482 356.108ZM72.3899 264.895C33.5369 240.71 19.0788 192.192 20.233 179.209C23.6612 180.126 28.6181 181.842 32.5699 183.191C48.2587 188.599 68.5566 195.528 86.3359 193.537C104.677 191.63 117.878 180.401 127.528 172.234C129.848 170.289 132.852 167.74 134.682 166.536C138.008 167.74 138.359 169.184 139.177 178.536C139.926 187.174 140.985 199.06 148.204 212.956C153.696 223.508 161.89 234.76 169.782 245.602C176.283 254.53 186.132 268.04 187.115 270.078C185.414 274.603 168.361 282.621 140.377 282.621C115.332 282.651 90.54 276.204 72.3899 264.895ZM217.311 155.678C217.311 136.805 232.602 121.499 251.444 121.499C270.328 121.499 285.619 136.805 285.619 155.678C285.619 174.523 270.328 189.853 251.444 189.853C232.576 189.857 217.311 174.523 217.311 155.678ZM570.065 560.91L491.22 603.596L542.464 639.113C542.464 639.113 351.929 699.548 266.533 612.799C224.469 570.147 216.619 503.75 282.294 464.358C347.969 424.947 605.658 479.428 605.658 479.428L513.257 531.871L570.065 560.91Z" fill="#00A8A8"/>
</svg>
