<svg width="410" height="343" viewBox="0 0 410 343" fill="none" xmlns="http://www.w3.org/2000/svg">
<rect width="410" height="343" rx="15.7692" fill="#E9E9E9" fill-opacity="0.36"/>
<path fill-rule="evenodd" clip-rule="evenodd" d="M217.193 90.0341C280.726 122.57 318.862 128.344 335.632 171.665C352.403 214.986 336.549 268.903 276.507 282.185C216.464 295.468 217.837 313.591 127.217 317.095C36.5971 320.6 1.3951 167.346 62.3261 115.727C123.256 64.1071 153.66 57.4971 217.193 90.0341Z" fill="#F2F5FF"/>
<mask id="mask0_2002_133" style="mask-type:alpha" maskUnits="userSpaceOnUse" x="21" y="56" width="368" height="259">
<path d="M217.526 78.2602C255.343 99.6942 340.368 51.5202 361.034 66.9782C368.081 72.2492 394.705 109.688 387.77 144.83C378.131 193.668 334.81 267.429 274.785 282.125C252.014 287.701 230.342 297.796 207.813 304.493C171.794 315.202 133.4 322.27 84.8281 302.107C6.5661 269.618 1.7921 163.8 62.7051 106.687C123.617 49.5762 154.012 42.2612 217.526 78.2602Z" fill="white"/>
</mask>
<g mask="url(#mask0_2002_133)">
<mask id="mask1_2002_133" style="mask-type:alpha" maskUnits="userSpaceOnUse" x="24" y="60" width="363" height="273">
<path d="M386.603 124.537L178.771 332.37L114.678 268.278L114.838 268.117L24.4521 177.733L88.5441 113.641L178.93 204.025L322.511 60.4453L386.603 124.537Z" fill="white"/>
</mask>
<g mask="url(#mask1_2002_133)">
<path d="M386.603 124.537L178.771 332.37L114.678 268.278L114.838 268.117L24.4521 177.733L88.5441 113.641L178.93 204.025L322.511 60.4453L386.603 124.537Z" fill="#00A8A8"/>
<path d="M165.874 -12.6367C168.626 52.9363 190.675 93.3453 232.022 108.586C273.369 123.827 330.895 106.017 404.601 55.1563" stroke="white" stroke-width="1.32"/>
<path d="M190.625 -11.7737C199.088 65.5013 172.664 104.35 111.352 104.773C19.3841 105.407 88.1661 37.9833 118.525 66.8783C148.884 95.7733 144.231 155.881 93.9071 195.433C60.3571 221.801 22.7471 234.257 -18.9249 232.802M372.487 206.039C237.079 192.531 127.741 237.098 44.4721 339.741" stroke="white" stroke-width="1.32"/>
<path d="M16.3401 192.59C104.528 219.562 160.22 270.229 183.416 344.592" stroke="white" stroke-width="1.32"/>
<path d="M375.47 120.628C313.31 178.49 270.772 194.459 247.856 168.534C213.482 129.648 282.686 102.388 291.566 136.38C300.447 170.371 245.757 195.191 173.772 204.566C125.781 210.816 68.1121 243.475 0.763062 302.542M234.752 346.385C227.754 293.67 240.281 265.962 272.331 263.262C304.381 260.562 339.378 275.856 377.321 309.146" stroke="white" stroke-width="1.32"/>
<path d="M374.11 159.588C315.315 213.035 288.569 279.388 293.872 358.647" stroke="white" stroke-width="1.32"/>
<path d="M18.9371 118.232C158.38 151.51 265.896 232.203 341.484 360.309" stroke="white" stroke-width="1.32"/>
<path d="M75.2671 -15.8018C32.0371 -8.51776 15.5271 9.24324 25.7371 37.4832C41.0541 79.8432 100.114 160.996 17.0661 171.813M13.7911 265.585C45.4761 316.574 80.4591 330.266 118.74 306.662C176.161 271.255 195.459 264.163 218.577 272.736C233.989 278.452 247.318 303.279 258.564 347.217" stroke="white" stroke-width="1.32"/>
</g>
</g>
<mask id="mask2_2002_133" style="mask-type:alpha" maskUnits="userSpaceOnUse" x="34" y="10" width="347" height="323">
<path d="M380.754 130.618L179.885 332.318L123.167 277.351L123.336 277.182L34.9221 188.769L82.2031 102.631L177.965 10.6821L336.352 64.1671L380.754 130.618Z" fill="white"/>
</mask>
<g mask="url(#mask2_2002_133)">
<path fill-rule="evenodd" clip-rule="evenodd" d="M336.39 174.832L293.738 179.996L280.273 306.822L307.236 303.414L317.385 198.905L338.056 295.15L365.453 290.306L336.39 174.832Z" fill="white" stroke="#01133B" stroke-width="1.32" stroke-linecap="round" stroke-linejoin="round"/>
<path d="M304.199 179.602C304.273 182.887 303.25 186.103 301.292 188.742C299.334 191.381 296.553 193.292 293.388 194.174L292.47 194.43" stroke="#01133B" stroke-width="1.32" stroke-linecap="round" stroke-linejoin="round"/>
<path d="M306.53 179.197C306.62 183.063 305.42 186.85 303.121 189.959C300.822 193.069 297.553 195.326 293.83 196.373L292.925 196.628" stroke="#01133B" stroke-width="0.521" stroke-linecap="round" stroke-linejoin="round" stroke-dasharray="1.56 1.56"/>
<path d="M326.757 176.971C327.432 180.217 329.168 183.146 331.691 185.296C334.215 187.445 337.382 188.694 340.694 188.844L341.654 188.887" stroke="#01133B" stroke-width="1.32" stroke-linecap="round" stroke-linejoin="round"/>
<path d="M324.373 177.102C325.165 180.923 327.204 184.372 330.17 186.907C333.136 189.442 336.861 190.918 340.758 191.105L341.706 191.15" stroke="#01133B" stroke-width="0.521" stroke-linecap="round" stroke-linejoin="round" stroke-dasharray="1.56 1.56"/>
<path d="M315.286 178.32L317.396 198.904M311.266 178.46L312.691 194.438C312.789 195.535 313.245 196.569 313.989 197.38C314.734 198.191 315.725 198.734 316.809 198.925" stroke="#01133B" stroke-width="1.32" stroke-linecap="round" stroke-linejoin="round"/>
<path fill-rule="evenodd" clip-rule="evenodd" d="M325.05 67.2061C321.555 64.1711 315.821 64.9911 312.98 69.4081C311.614 71.5301 311.239 73.7721 311.857 76.1321C309.727 75.3531 307.273 75.0601 304.371 75.2721C296.291 75.8611 289.194 82.1821 289.83 90.9161C290.466 99.6491 278.776 99.8171 274.849 108.403C273.047 112.346 274.449 116.409 275.438 120.337L275.567 120.86C276.638 125.298 276.971 129.55 271.298 133.245C264.03 137.979 260.189 143.822 259.773 150.774L362.73 137.488C362.134 129.904 358.227 125.043 351.008 122.905C345.283 121.209 344.48 116.609 343.611 111.548L343.496 110.886C342.746 106.566 341.792 101.991 337.595 98.6511C328.23 91.2021 324.682 91.6381 320.871 84.8211C320.083 83.4111 319.26 82.1511 318.38 81.0431L318.409 81.0421C322.382 80.8411 325.427 78.0591 326.25 76.9771C328.191 74.4271 328.545 70.2411 325.05 67.2061Z" fill="#01133B"/>
<path fill-rule="evenodd" clip-rule="evenodd" d="M340.574 125.664L375.484 157.129L379.104 226.074L357.637 227.197L349.189 171.205L336.523 156.667L338.28 174.817L293.358 179.679L288.881 157.931L273.551 176.809C267.795 183.897 257.381 184.977 250.291 179.22C249.448 178.536 248.675 177.77 247.982 176.934L199.77 118.762L231.29 105.278L264.858 146.788L280.03 129.853C282.182 127.451 285.065 125.823 288.233 125.221L308.463 121.379L331.061 121.886C334.582 121.966 337.958 123.306 340.574 125.664Z" fill="white" stroke="#01133B" stroke-width="1.32" stroke-linecap="round" stroke-linejoin="round"/>
<path fill-rule="evenodd" clip-rule="evenodd" d="M217.666 140.514L197.343 113.544C196.696 112.686 196.416 111.605 196.566 110.541C196.715 109.476 197.282 108.514 198.14 107.867C198.999 107.22 200.079 106.94 201.144 107.09C202.208 107.239 203.17 107.806 203.817 108.664L213.979 122.15" fill="white"/>
<path d="M217.666 140.514L197.343 113.544C196.696 112.686 196.416 111.605 196.566 110.541C196.715 109.476 197.282 108.514 198.14 107.867C198.999 107.22 200.079 106.94 201.144 107.09C202.208 107.239 203.17 107.806 203.817 108.664L213.979 122.15" stroke="#01133B" stroke-width="1.32" stroke-linecap="round" stroke-linejoin="round"/>
<path fill-rule="evenodd" clip-rule="evenodd" d="M213.977 122.15L203.816 108.666C203.169 107.808 202.89 106.727 203.04 105.663C203.189 104.598 203.756 103.637 204.614 102.99C205.473 102.343 206.553 102.064 207.617 102.214C208.682 102.363 209.643 102.93 210.29 103.788L220.451 117.273" fill="white"/>
<path d="M213.977 122.15L203.816 108.666C203.169 107.808 202.89 106.727 203.04 105.663C203.189 104.598 203.756 103.637 204.614 102.99C205.473 102.343 206.553 102.064 207.617 102.214C208.682 102.363 209.643 102.93 210.29 103.788L220.451 117.273" stroke="#01133B" stroke-width="1.32" stroke-linecap="round" stroke-linejoin="round"/>
<path fill-rule="evenodd" clip-rule="evenodd" d="M220.45 117.273L210.289 103.788C209.642 102.929 209.363 101.849 209.512 100.785C209.662 99.72 210.228 98.7585 211.087 98.1115C211.945 97.4645 213.025 97.185 214.09 97.3346C215.155 97.4842 216.116 98.0505 216.763 98.909L226.924 112.394" fill="white"/>
<path d="M220.45 117.273L210.289 103.788C209.642 102.929 209.363 101.849 209.512 100.785C209.662 99.72 210.228 98.7585 211.087 98.1115C211.945 97.4645 213.025 97.185 214.09 97.3346C215.155 97.4842 216.116 98.0505 216.763 98.909L226.924 112.394" stroke="#01133B" stroke-width="1.32" stroke-linecap="round" stroke-linejoin="round"/>
<path fill-rule="evenodd" clip-rule="evenodd" d="M226.924 112.396L216.762 98.91C216.442 98.4849 216.208 98.0008 216.075 97.4855C215.942 96.9702 215.912 96.4336 215.986 95.9066C216.06 95.3795 216.238 94.8722 216.508 94.4136C216.778 93.9551 217.136 93.5543 217.561 93.234C218.423 92.5849 219.505 92.3018 220.574 92.4464C221.643 92.5909 222.612 93.1514 223.27 94.006L245.202 122.486" fill="white"/>
<path d="M226.924 112.396L216.762 98.91C216.442 98.4849 216.208 98.0008 216.075 97.4855C215.942 96.9702 215.912 96.4336 215.986 95.9066C216.06 95.3795 216.238 94.8722 216.508 94.4136C216.778 93.9551 217.136 93.5543 217.561 93.234C218.423 92.5849 219.505 92.3018 220.574 92.4464C221.643 92.5909 222.612 93.1514 223.27 94.006L245.202 122.486" stroke="#01133B" stroke-width="1.32" stroke-linecap="round" stroke-linejoin="round"/>
<path fill-rule="evenodd" clip-rule="evenodd" d="M233.763 110.959L233.029 104.973C232.899 103.908 233.197 102.834 233.858 101.988C234.519 101.142 235.489 100.594 236.554 100.463C237.627 100.331 238.709 100.625 239.567 101.282C240.426 101.938 240.992 102.905 241.146 103.975L243.634 121.338" fill="white"/>
<path d="M233.763 110.959L233.029 104.973C232.899 103.908 233.197 102.834 233.858 101.988C234.519 101.142 235.489 100.594 236.554 100.463C237.627 100.331 238.709 100.625 239.567 101.282C240.426 101.938 240.992 102.905 241.146 103.975L243.634 121.338" stroke="#01133B" stroke-width="1.32" stroke-linecap="round" stroke-linejoin="round"/>
<path fill-rule="evenodd" clip-rule="evenodd" d="M315.833 122.196L314.275 109.524L300.229 111.246L301.74 123.587" fill="white"/>
<path d="M315.833 122.196L314.275 109.524L300.229 111.246L301.74 123.587" stroke="#01133B" stroke-width="1.32" stroke-linecap="round" stroke-linejoin="round"/>
<mask id="mask3_2002_133" style="mask-type:alpha" maskUnits="userSpaceOnUse" x="300" y="109" width="16" height="17">
<path d="M314.274 109.524L300.229 111.245L301.215 119.268C301.443 121.131 302.402 122.826 303.881 123.982C305.359 125.137 307.236 125.658 309.099 125.43C310.962 125.202 312.657 124.243 313.813 122.764C314.969 121.286 315.489 119.409 315.261 117.546L314.274 109.523V109.524Z" fill="white"/>
</mask>
<g mask="url(#mask3_2002_133)">
<path d="M302.332 120.295C292.097 121.55 282.854 114.882 281.689 105.402C280.524 95.922 287.877 87.218 298.112 85.963C308.348 84.708 317.59 91.375 318.755 100.856C319.921 110.336 312.568 119.039 302.332 120.295Z" fill="#01133B"/>
</g>
<path d="M290.283 92.1981C289.225 83.5851 295.346 75.7481 303.955 74.6921C312.565 73.6361 320.403 79.7621 321.461 88.3741L322.335 95.4871C323.394 104.099 317.273 111.937 308.663 112.993C300.054 114.049 292.216 107.923 291.157 99.3111L290.283 92.1981Z" fill="#01133B"/>
<path fill-rule="evenodd" clip-rule="evenodd" d="M291.706 93.976L292.881 103.53C293.773 110.786 300.376 115.947 307.63 115.057C314.883 114.167 320.04 107.564 319.148 100.309L317.974 90.754C317.082 83.498 310.479 78.337 303.225 79.227C295.972 80.117 290.815 86.721 291.706 93.976Z" fill="white" stroke="#01133B" stroke-width="1.32" stroke-linecap="round" stroke-linejoin="round"/>
<mask id="mask4_2002_133" style="mask-type:alpha" maskUnits="userSpaceOnUse" x="291" y="79" width="29" height="35">
<path d="M291.707 93.9741L292.736 102.335C293.628 109.592 300.231 114.753 307.484 113.865C314.737 112.975 319.893 106.372 319.001 99.1151L317.972 90.7551C317.08 83.4981 310.477 78.3371 303.224 79.2251C295.971 80.1151 290.815 86.7171 291.707 93.9741Z" fill="white"/>
</mask>
<g mask="url(#mask4_2002_133)">
<path fill-rule="evenodd" clip-rule="evenodd" d="M294.191 73.433L294.084 73.428C291.04 73.32 279.976 77.531 276.016 86.147C272.047 94.783 274.68 104.751 278.735 104.224C281.127 103.912 283.447 103.191 285.595 102.093C291.382 99.143 295.228 93.893 296.586 88.023C301.008 92.277 308.305 94.716 314.989 95.043C318.644 95.221 320.855 95.374 323.19 95.091C327.91 94.518 320.055 77.865 312.769 69.708C307.685 64.017 297.894 68.681 294.191 73.433Z" fill="#01133B"/>
</g>
<mask id="mask5_2002_133" style="mask-type:alpha" maskUnits="userSpaceOnUse" x="303" y="105" width="9" height="6">
<path d="M310.898 105.596L303.955 107.908C305.106 110.083 306.661 110.835 308.618 110.166C310.576 109.498 311.336 107.974 310.898 105.596Z" fill="white"/>
</mask>
<g mask="url(#mask5_2002_133)">
<path d="M310.898 105.596L303.954 107.908C305.106 110.083 306.661 110.835 308.618 110.166C310.576 109.498 311.335 107.974 310.898 105.596Z" fill="white" stroke="#01133B" stroke-linecap="round" stroke-linejoin="round"/>
<path d="M308.836 112.338C307.148 112.545 305.66 111.734 305.511 110.528C305.363 109.321 306.611 108.176 308.299 107.968C309.987 107.762 311.476 108.572 311.624 109.778C311.773 110.985 310.524 112.131 308.836 112.338Z" fill="#01133B"/>
</g>
<path d="M303.525 99.8L303.398 103.234L305.285 103.324" stroke="#01133B" stroke-width="1.32" stroke-linecap="round" stroke-linejoin="round"/>
<path d="M311.112 99.0042C309.573 99.1922 308.224 98.5142 308.098 97.4872C307.971 96.4612 309.117 95.4772 310.655 95.2872C312.194 95.0992 313.544 95.7772 313.67 96.8042C313.796 97.8302 312.651 98.8152 311.112 99.0042Z" stroke="#01133B" stroke-width="0.802" stroke-linecap="round" stroke-linejoin="round"/>
<path d="M311.112 99.004C310.189 99.117 309.338 98.377 309.212 97.35C309.086 96.324 309.732 95.4 310.655 95.288C311.579 95.174 312.429 95.914 312.555 96.941C312.682 97.967 312.035 98.891 311.112 99.004Z" fill="#01133B"/>
<path d="M296.782 100.764C295.243 100.952 293.893 100.274 293.767 99.2472C293.641 98.2212 294.786 97.2362 296.325 97.0472C297.863 96.8592 299.213 97.5372 299.339 98.5642C299.465 99.5902 298.32 100.575 296.782 100.764Z" stroke="#01133B" stroke-width="0.802" stroke-linecap="round" stroke-linejoin="round"/>
<path d="M296.782 100.763C295.859 100.876 295.008 100.136 294.882 99.11C294.756 98.084 295.402 97.16 296.325 97.047C297.248 96.934 298.099 97.674 298.225 98.7C298.351 99.727 297.705 100.65 296.782 100.763Z" fill="#01133B"/>
<path fill-rule="evenodd" clip-rule="evenodd" d="M317.677 96.8751L319.797 96.7051L319.108 104.686L317.467 105.08L317.677 96.8751Z" fill="white"/>
<path fill-rule="evenodd" clip-rule="evenodd" d="M318.243 96.4461L319.77 96.1561C320.248 96.0654 320.741 96.0856 321.21 96.2153C321.679 96.3449 322.112 96.5806 322.476 96.904C322.84 97.2274 323.124 97.6301 323.308 98.0809C323.492 98.5316 323.569 99.0186 323.535 99.5041C323.451 100.716 323.002 101.875 322.247 102.828C321.493 103.781 320.469 104.484 319.308 104.844L318.546 105.08" fill="white"/>
<path d="M318.243 96.4461L319.77 96.1561C320.248 96.0654 320.741 96.0856 321.21 96.2153C321.679 96.3449 322.112 96.5806 322.476 96.904C322.84 97.2274 323.124 97.6301 323.308 98.0809C323.492 98.5316 323.569 99.0186 323.535 99.5041C323.451 100.716 323.002 101.875 322.247 102.828C321.493 103.781 320.469 104.484 319.308 104.844L318.546 105.08M320.137 98.9801L320.231 101.668M320.196 100.67L321.416 99.6121" stroke="#01133B" stroke-width="1.32" stroke-linecap="round" stroke-linejoin="round"/>
<path d="M319.786 103.235L317.363 114.173L324.786 113.263L319.786 103.235ZM294.706 106.316L292.283 117.253L299.706 116.343L294.706 106.315V106.316Z" stroke="white" stroke-width="0.88" stroke-linejoin="round"/>
<path fill-rule="evenodd" clip-rule="evenodd" d="M321.417 121.331L330.721 215.475L345.587 213.145L349.975 174.233L370.7 150.776L344.458 125.516C341.672 122.833 337.955 121.334 334.087 121.333L321.417 121.331Z" fill="#EDEEF2" stroke="#01133B" stroke-width="1.32" stroke-linejoin="round"/>
<path fill-rule="evenodd" clip-rule="evenodd" d="M328.495 122.149L325.784 138.014L333.383 143.814C334.859 144.94 335.979 146.466 336.612 148.211C337.245 149.955 337.363 151.845 336.953 153.655L328.506 190.894" fill="#EDEEF2"/>
<path d="M328.495 122.149L325.784 138.014L333.383 143.814C334.859 144.94 335.979 146.466 336.612 148.211C337.245 149.955 337.363 151.845 336.953 153.655L328.506 190.894M340.019 161.36L341.905 170.623" stroke="#01133B" stroke-width="1.32" stroke-linecap="round" stroke-linejoin="round"/>
<path fill-rule="evenodd" clip-rule="evenodd" d="M294.637 123.922L297.965 225.573L276.884 241.37L279.575 179.606L274.337 183.815C266.07 190.459 254.074 189.589 246.847 181.82L214.391 146.929L245.194 115.802L265.772 143.319L274.02 133.07C277.109 129.233 281.442 126.597 286.27 125.618L294.637 123.922Z" fill="#EDEEF2" stroke="#01133B" stroke-width="1.32" stroke-linejoin="round"/>
<path fill-rule="evenodd" clip-rule="evenodd" d="M285.678 125.626L292.371 141.114L284.903 146.94C283.321 148.175 282.162 149.871 281.586 151.793C281.01 153.716 281.046 155.77 281.688 157.671L297.237 203.704" fill="#EDEEF2"/>
<path d="M285.678 125.626L292.371 141.114L284.903 146.94C283.321 148.175 282.162 149.871 281.586 151.793C281.01 153.716 281.046 155.77 281.688 157.671L297.237 203.704" stroke="#01133B" stroke-width="1.32" stroke-linecap="round" stroke-linejoin="round"/>
<path fill-rule="evenodd" clip-rule="evenodd" d="M211.447 147.816L245.195 114.171L251.287 120.397L231.235 170.626L211.447 147.816Z" fill="#EDEEF2" stroke="#01133B" stroke-width="1.32" stroke-linejoin="round"/>
<path fill-rule="evenodd" clip-rule="evenodd" d="M234.883 169.175L234.222 168.555L232.478 166.923L250.205 122.971L250.817 123.508L234.883 169.175Z" fill="#01133B"/>
<path d="M280.054 171.221L279.58 179.602M294.865 129.783C298.292 139.348 303.109 143.932 309.317 143.536C315.525 143.139 319.661 137.223 321.726 125.786" stroke="#01133B" stroke-width="1.32" stroke-linecap="round" stroke-linejoin="round"/>
<path fill-rule="evenodd" clip-rule="evenodd" d="M135.075 243.122L71.2071 234.966L62.6631 283.46L129.318 294.322L135.075 243.122Z" fill="white" stroke="#01133B" stroke-width="1.32" stroke-linecap="round" stroke-linejoin="round"/>
<path d="M99.1911 240.2L98.0311 252.841M120 244.598C119.404 248.662 120.175 252.809 122.194 256.386C124.212 259.963 127.362 262.768 131.148 264.359L131.99 264.712" stroke="#01133B" stroke-width="1.32" stroke-linecap="round" stroke-linejoin="round"/>
<path d="M116.611 243.945C115.188 253.631 120.487 263.049 129.499 266.853L130.327 267.203" stroke="#01133B" stroke-width="0.753" stroke-linecap="round" stroke-linejoin="round" stroke-dasharray="2.26 2.26"/>
<path d="M103.555 240.918L102.092 258.737" stroke="#01133B" stroke-width="1.32" stroke-linejoin="round"/>
<path fill-rule="evenodd" clip-rule="evenodd" d="M13.3941 245.483L49.3481 252.707L66.2301 234.637L135.543 245.447L141.486 210.031L175.9 214.003C190.863 215.73 204.4 204.995 206.135 190.025L206.142 189.963L214.877 113.079L175.072 111.322L167.005 170.832L111.801 160.778L78.7331 159.108C76.0852 158.975 73.4486 159.538 71.0864 160.742C68.7241 161.946 66.7187 163.748 65.2701 165.968L13.3941 245.483Z" fill="white" stroke="#01133B" stroke-width="1.32" stroke-linecap="round" stroke-linejoin="round"/>
<path fill-rule="evenodd" clip-rule="evenodd" d="M171.81 135.308L176.72 94.4682C176.878 93.1513 177.552 91.9509 178.594 91.1309C179.637 90.3109 180.962 89.9384 182.279 90.0952L182.292 90.0972C182.945 90.1775 183.575 90.3856 184.148 90.7096C184.72 91.0337 185.223 91.4674 185.628 91.9858C186.032 92.5043 186.331 93.0974 186.506 93.7313C186.682 94.3652 186.731 95.0274 186.65 95.6802L186.649 95.6852L184.098 116.281" fill="white"/>
<path d="M171.81 135.308L176.72 94.4682C176.878 93.1513 177.552 91.9509 178.594 91.1309C179.637 90.3109 180.962 89.9384 182.279 90.0952L182.292 90.0972C182.945 90.1775 183.575 90.3856 184.148 90.7096C184.72 91.0337 185.223 91.4674 185.628 91.9858C186.032 92.5043 186.331 93.0974 186.506 93.7313C186.682 94.3652 186.731 95.0274 186.65 95.6802L186.649 95.6852L184.098 116.281" stroke="#01133B" stroke-width="1.32" stroke-linecap="round" stroke-linejoin="round"/>
<path fill-rule="evenodd" clip-rule="evenodd" d="M210.2 122.517L214.681 116.545C215.471 115.491 216.647 114.794 217.951 114.608C219.255 114.421 220.579 114.76 221.633 115.55L221.65 115.563C222.706 116.363 223.402 117.549 223.586 118.86C223.77 120.172 223.426 121.504 222.631 122.563L211.098 137.936" fill="white"/>
<path d="M210.2 122.517L214.681 116.545C215.471 115.491 216.647 114.794 217.951 114.608C219.255 114.421 220.579 114.76 221.633 115.55L221.65 115.563C222.706 116.363 223.402 117.549 223.586 118.86C223.77 120.172 223.426 121.504 222.631 122.563L211.098 137.936" stroke="#01133B" stroke-width="1.32" stroke-linecap="round" stroke-linejoin="round"/>
<path fill-rule="evenodd" clip-rule="evenodd" d="M184.103 116.286L186.639 95.523C186.717 94.8868 186.919 94.2724 187.236 93.715C187.552 93.1577 187.975 92.6685 188.482 92.2757C188.988 91.8829 189.567 91.5942 190.186 91.4264C190.804 91.2586 191.45 91.215 192.085 91.298C193.376 91.4678 194.548 92.141 195.345 93.1708C196.142 94.2006 196.499 95.5036 196.34 96.796L193.788 117.541" fill="white"/>
<path d="M184.103 116.286L186.639 95.523C186.717 94.8868 186.919 94.2724 187.236 93.715C187.552 93.1577 187.975 92.6685 188.482 92.2757C188.988 91.8829 189.567 91.5942 190.186 91.4264C190.804 91.2586 191.45 91.215 192.085 91.298C193.376 91.4678 194.548 92.141 195.345 93.1708C196.142 94.2006 196.499 95.5036 196.34 96.796L193.788 117.541" stroke="#01133B" stroke-width="1.32" stroke-linecap="round" stroke-linejoin="round"/>
<path fill-rule="evenodd" clip-rule="evenodd" d="M193.794 117.544L196.337 96.8751C196.416 96.2297 196.623 95.6064 196.945 95.0414C197.267 94.4763 197.697 93.9807 198.212 93.5833C198.727 93.1859 199.315 92.8945 199.943 92.7261C200.571 92.5577 201.227 92.5155 201.871 92.6021C203.183 92.7798 204.373 93.4677 205.181 94.5166C205.99 95.5654 206.352 96.8908 206.19 98.2051L203.642 118.916" fill="white"/>
<path d="M193.794 117.544L196.337 96.8751C196.416 96.2297 196.623 95.6064 196.945 95.0414C197.267 94.4763 197.697 93.9807 198.212 93.5833C198.727 93.1859 199.315 92.8945 199.943 92.7261C200.571 92.5577 201.227 92.5155 201.871 92.6021C203.183 92.7798 204.373 93.4677 205.181 94.5166C205.99 95.5654 206.352 96.8908 206.19 98.2051L203.642 118.916" stroke="#01133B" stroke-width="1.32" stroke-linecap="round" stroke-linejoin="round"/>
<path fill-rule="evenodd" clip-rule="evenodd" d="M203.653 118.919L206.174 98.419C206.341 97.0591 207.041 95.821 208.12 94.9768C209.2 94.1327 210.57 93.7515 211.93 93.917L211.949 93.92C213.319 94.0937 214.565 94.8001 215.418 95.8863C216.271 96.9725 216.662 98.351 216.505 99.723L211.556 143.321" fill="white"/>
<path d="M203.653 118.919L206.174 98.419C206.341 97.0591 207.041 95.821 208.12 94.9768C209.2 94.1327 210.57 93.7515 211.93 93.917L211.949 93.92C213.319 94.0937 214.565 94.8001 215.418 95.8863C216.271 96.9725 216.662 98.351 216.505 99.723L211.556 143.321" stroke="#01133B" stroke-width="1.32" stroke-linecap="round" stroke-linejoin="round"/>
<path fill-rule="evenodd" clip-rule="evenodd" d="M95.2711 159.901L75.2541 274.638L7.4061 236.988L61.6121 164.971C63.1273 162.957 65.1134 161.346 67.3963 160.278C69.6792 159.211 72.1892 158.72 74.7061 158.848L95.2711 159.901Z" fill="#EDEEF2" stroke="#01133B" stroke-width="1.32" stroke-linejoin="round"/>
<path fill-rule="evenodd" clip-rule="evenodd" d="M84.5741 159.42L86.5581 178.72L80.1241 182.328C78.2475 183.381 76.7205 184.96 75.7316 186.871C74.7428 188.782 74.3355 190.94 74.5601 193.08L79.3001 238.253" fill="#EDEEF2"/>
<path d="M84.5741 159.42L86.5581 178.72L80.1241 182.328C78.2475 183.381 76.7205 184.96 75.7316 186.871C74.7428 188.782 74.3355 190.94 74.5601 193.08L79.3001 238.253" stroke="#01133B" stroke-width="1.32" stroke-linejoin="round"/>
<path d="M68.5001 210.888L64.5451 223.161" stroke="#01133B" stroke-width="1.32" stroke-linecap="round" stroke-linejoin="round"/>
<path fill-rule="evenodd" clip-rule="evenodd" d="M124.944 162.701L119.738 254.865C119.505 258.977 120.346 263.079 122.177 266.768C124.008 270.457 126.767 273.606 130.183 275.907L140.404 282.788L143.093 210.894L178.077 215.486C191.997 217.313 204.852 207.732 207.089 193.863L215.906 139.197L168.206 131.573L164.003 169.427L124.944 162.701Z" fill="#EDEEF2" stroke="#01133B" stroke-width="1.32" stroke-linejoin="round"/>
<path d="M143.036 198.347L143.031 212.111M135.574 164.634L128.455 181.802L136.386 191.421C137.563 192.849 138.326 194.573 138.592 196.405C138.858 198.236 138.616 200.106 137.894 201.81L120.186 243.6" stroke="#01133B" stroke-width="1.32" stroke-linecap="round" stroke-linejoin="round"/>
<path fill-rule="evenodd" clip-rule="evenodd" d="M166.4 130.575L163.66 147.116L216.158 161.361L217.55 139.211L166.4 130.575Z" fill="#EDEEF2" stroke="#01133B" stroke-width="1.32" stroke-linejoin="round"/>
<path fill-rule="evenodd" clip-rule="evenodd" d="M166.273 149.128L211.884 162.971L212.521 160.645L166.273 147.915V149.128Z" fill="#01133B"/>
<path d="M94.3101 165.954L109.261 183.649L124.504 169.196" stroke="#01133B" stroke-width="1.32" stroke-linecap="round" stroke-linejoin="round"/>
<path fill-rule="evenodd" clip-rule="evenodd" d="M102.502 161.553L105.017 143.685L121.387 145.983L118.873 163.851" fill="white"/>
<path d="M102.502 161.553L105.017 143.685L121.387 145.983L118.873 163.851" stroke="#01133B" stroke-width="1.378" stroke-linecap="round" stroke-linejoin="round"/>
<mask id="mask6_2002_133" style="mask-type:alpha" maskUnits="userSpaceOnUse" x="102" y="143" width="20" height="27">
<path d="M105.019 143.685L121.388 145.982L119.044 162.634C118.407 167.156 114.227 170.308 109.707 169.674C105.187 169.04 102.038 164.859 102.675 160.337L105.019 143.685Z" fill="white"/>
</mask>
<g mask="url(#mask6_2002_133)">
<path d="M118.404 154.895C128.616 156.328 137.973 149.821 139.304 140.362C140.636 130.902 133.437 122.072 123.225 120.64C113.014 119.206 103.656 125.713 102.325 135.172C100.994 144.631 108.193 153.461 118.404 154.895Z" fill="#01133B"/>
</g>
<path fill-rule="evenodd" clip-rule="evenodd" d="M118.317 109.829C126.306 110.949 131.87 118.338 130.746 126.33C130.72 126.514 130.69 126.698 130.657 126.881L129.587 132.831C128.153 140.799 120.681 146.212 112.667 145.088C104.74 143.975 99.2181 136.644 100.334 128.714L101.174 122.754C102.342 114.451 110.017 108.664 118.317 109.829Z" fill="#01133B"/>
<path fill-rule="evenodd" clip-rule="evenodd" d="M128.879 129.134L127.537 138.667C126.518 145.907 119.826 150.952 112.59 149.937C105.354 148.921 100.314 142.229 101.332 134.989L102.674 125.456C103.693 118.216 110.385 113.171 117.621 114.186C124.857 115.202 129.898 121.894 128.879 129.134Z" fill="white" stroke="#01133B" stroke-width="1.32" stroke-linecap="round" stroke-linejoin="round"/>
<path fill-rule="evenodd" clip-rule="evenodd" d="M108.829 112.209C105.382 109.404 102.466 110.246 100.079 114.734C98.3171 118.046 97.4471 124.281 100.073 135.082C100.183 135.53 101.483 130.213 101.891 129.829C104.98 126.916 107.398 123.499 109.145 119.577C111.123 115.137 111.017 112.682 108.829 112.209Z" fill="#01133B"/>
<path fill-rule="evenodd" clip-rule="evenodd" d="M102.03 130.094L100.541 129.646C100.075 129.506 99.5832 129.475 99.1032 129.555C98.6233 129.635 98.1681 129.824 97.7727 130.108C97.3773 130.391 97.0523 130.762 96.8226 131.191C96.593 131.62 96.4649 132.096 96.4481 132.582C96.4053 133.796 96.7303 134.995 97.3805 136.022C98.0308 137.048 98.9759 137.854 100.092 138.334L100.826 138.649L102.03 130.094Z" fill="white" stroke="#01133B" stroke-width="1.32" stroke-linecap="round" stroke-linejoin="round"/>
<path d="M99.8821 132.416L99.5071 135.08M99.6461 134.09L98.5421 132.91M116.472 134.278L116.538 137.714L114.65 137.771" stroke="#01133B" stroke-width="1.32" stroke-linecap="round" stroke-linejoin="round"/>
<path d="M107.62 132.009C109.046 132.209 110.295 131.707 110.41 130.888C110.525 130.068 109.463 129.242 108.038 129.042C106.612 128.842 105.363 129.344 105.248 130.163C105.132 130.983 106.195 131.808 107.62 132.009Z" stroke="#01133B" stroke-width="0.802" stroke-linecap="round" stroke-linejoin="round"/>
<path d="M107.62 132.008C108.475 132.128 109.262 131.562 109.377 130.742C109.493 129.923 108.893 129.162 108.037 129.042C107.182 128.922 106.395 129.489 106.28 130.308C106.165 131.127 106.765 131.888 107.62 132.008Z" fill="#01133B"/>
<path d="M121.918 134.018C123.343 134.218 124.593 133.716 124.708 132.898C124.823 132.078 123.761 131.252 122.335 131.052C120.91 130.852 119.661 131.354 119.546 132.172C119.43 132.992 120.492 133.818 121.918 134.018Z" stroke="#01133B" stroke-width="0.802" stroke-linecap="round" stroke-linejoin="round"/>
<path d="M121.918 134.018C122.773 134.138 123.56 133.571 123.675 132.752C123.79 131.933 123.191 131.172 122.335 131.052C121.48 130.932 120.693 131.499 120.578 132.318C120.463 133.137 121.063 133.898 121.918 134.018Z" fill="#01133B"/>
<path fill-rule="evenodd" clip-rule="evenodd" d="M113.174 112.762C123.677 111.796 131.281 113.316 135.985 117.322C143.042 123.332 134.286 135.923 117.835 129.097C106.867 124.547 105.313 119.101 113.174 112.762Z" fill="#01133B"/>
<path fill-rule="evenodd" clip-rule="evenodd" d="M105.419 113.978C106.983 110.176 119.63 105.295 125.51 108.174C129.429 110.094 127.582 114.586 119.967 121.65C109.226 119.07 104.377 116.513 105.419 113.978Z" fill="#01133B"/>
<mask id="mask7_2002_133" style="mask-type:alpha" maskUnits="userSpaceOnUse" x="108" y="139" width="10" height="7">
<path d="M108.882 139.465L117.813 142.613C116.274 145.401 114.245 146.34 111.728 145.43C109.21 144.521 108.261 142.532 108.882 139.465Z" fill="white"/>
</mask>
<g mask="url(#mask7_2002_133)">
<path d="M108.882 139.465L117.813 142.614C116.274 145.401 114.246 146.34 111.728 145.43C109.21 144.521 108.262 142.532 108.882 139.465Z" fill="white" stroke="#01133B" stroke-linecap="round" stroke-linejoin="round"/>
<path d="M111.466 147.243C114.112 147.614 116.409 146.842 116.596 145.517C116.782 144.193 114.788 142.818 112.141 142.447C109.495 142.076 107.198 142.849 107.011 144.173C106.825 145.497 108.819 146.872 111.466 147.243Z" fill="#01133B"/>
</g>
</g>
<path d="M230.914 88.1541C234.782 81.6471 238.995 78.7291 243.552 79.3991C250.388 80.4051 243.151 89.2561 239.801 85.4071C236.451 81.5581 239.55 73.8181 244.981 70.9631C250.412 68.1071 253.914 66.3801 253.914 62.1541M200.914 81.1541C201.377 72.7731 205.377 66.4401 212.914 62.1541M141.402 82.8361C141.555 90.5071 145.594 93.6361 153.52 92.2221C161.445 90.8081 166.406 93.6791 168.402 100.836" stroke="#01133B" stroke-width="4.4" stroke-linejoin="round"/>
</svg>
